<svg width="720" height="800" viewBox="0 0 720 800" fill="none" xmlns="http://www.w3.org/2000/svg">
<g clip-path="url(#clip0_386_179)">
<path d="M720 118.343V0H579.375V118.343H720Z" fill="#692BE0"/>
<g filter="url(#filter0_f_386_179)">
<path d="M-131.201 426.035C-131.201 583.442 82.0013 711.046 345 711.046C607.999 711.046 821.201 583.442 821.201 426.035C821.201 268.628 607.999 141.025 345 141.025C82.0013 141.025 -131.201 268.628 -131.201 426.035Z" fill="#F3EEFC"/>
<path d="M-341.584 220.131C-341.584 390.355 -179.856 528.349 19.646 528.349C219.148 528.349 380.876 390.355 380.876 220.131C380.876 49.9073 219.148 -88.0864 19.646 -88.0864C-179.856 -88.0864 -341.584 49.9073 -341.584 220.131Z" fill="#9D75EB"/>
<path d="M-456.296 908.871C-456.296 1024.83 -233.165 1118.84 42.0824 1118.84C317.329 1118.84 540.461 1024.83 540.461 908.871C540.461 792.907 317.329 698.899 42.0824 698.899C-233.165 698.899 -456.296 792.907 -456.296 908.871Z" fill="#814DE5"/>
<path d="M263.431 803.773C263.431 980.484 433.07 1123.74 642.331 1123.74C851.592 1123.74 1021.23 980.484 1021.23 803.773C1021.23 627.061 851.592 483.808 642.331 483.808C433.07 483.808 263.431 627.061 263.431 803.773Z" fill="#BA9DF1"/>
<path d="M183.269 102.13C183.269 262.435 377.432 392.388 616.945 392.388C856.458 392.388 1050.62 262.435 1050.62 102.13C1050.62 -58.1748 856.458 -188.128 616.945 -188.128C377.432 -188.128 183.269 -58.1748 183.269 102.13Z" fill="#D6C5F7"/>
</g>
</g>
<defs>
<filter id="filter0_f_386_179" x="-696.296" y="-428.128" width="1986.92" height="1791.86" filterUnits="userSpaceOnUse" color-interpolation-filters="sRGB">
<feFlood flood-opacity="0" result="BackgroundImageFix"/>
<feBlend mode="normal" in="SourceGraphic" in2="BackgroundImageFix" result="shape"/>
<feGaussianBlur stdDeviation="120" result="effect1_foregroundBlur_386_179"/>
</filter>
<clipPath id="clip0_386_179">
<rect width="800" height="720" fill="white" transform="matrix(0 1 -1 0 720 0)"/>
</clipPath>
</defs>
</svg>
