<svg width="96" height="24" viewBox="0 0 96 24" fill="none" xmlns="http://www.w3.org/2000/svg">
<path d="M0.272 23V0.439999H5.232V18.808H15.664V23H0.272ZM17.3613 16.312V12.504H27.2493V16.312H17.3613Z" fill="#814DE5"/>
<path d="M35.4605 23V4.536H28.0045V0.439999H47.8765V4.536H40.4205V23H35.4605ZM55.516 23.352C53.66 23.352 52.06 23.0213 50.716 22.36C49.3933 21.6773 48.3693 20.728 47.644 19.512C46.94 18.2747 46.588 16.824 46.588 15.16C46.588 13.5387 46.9293 12.12 47.612 10.904C48.316 9.66667 49.2653 8.70667 50.46 8.024C51.676 7.32 53.0733 6.968 54.652 6.968C56.9347 6.968 58.748 7.69333 60.092 9.144C61.436 10.5733 62.108 12.5147 62.108 14.968V16.184H51.196C51.3667 17.4213 51.8147 18.328 52.54 18.904C53.2867 19.4587 54.3107 19.736 55.612 19.736C56.4653 19.736 57.3293 19.608 58.204 19.352C59.0787 19.096 59.868 18.7013 60.572 18.168L61.852 21.4C61.0627 21.9973 60.092 22.4773 58.94 22.84C57.8093 23.1813 56.668 23.352 55.516 23.352ZM54.844 10.168C53.82 10.168 52.988 10.4773 52.348 11.096C51.7293 11.7147 51.3453 12.5787 51.196 13.688H58.108C57.98 11.3413 56.892 10.168 54.844 10.168ZM72.5665 23.352C70.8598 23.352 69.3665 23.0213 68.0865 22.36C66.8278 21.6773 65.8572 20.7173 65.1745 19.48C64.4918 18.2427 64.1505 16.7813 64.1505 15.096C64.1505 13.4107 64.4918 11.96 65.1745 10.744C65.8572 9.528 66.8278 8.6 68.0865 7.96C69.3665 7.29867 70.8598 6.968 72.5665 6.968C73.5692 6.968 74.5825 7.11733 75.6065 7.416C76.6305 7.71467 77.4625 8.14133 78.1025 8.696L76.7585 12.024C76.2252 11.5973 75.6278 11.2667 74.9665 11.032C74.3052 10.776 73.6652 10.648 73.0465 10.648C71.7878 10.648 70.8065 11.0427 70.1025 11.832C69.4198 12.6 69.0785 13.6987 69.0785 15.128C69.0785 16.536 69.4198 17.6453 70.1025 18.456C70.8065 19.2453 71.7878 19.64 73.0465 19.64C73.6438 19.64 74.2732 19.5227 74.9345 19.288C75.6172 19.0533 76.2252 18.712 76.7585 18.264L78.1025 21.592C77.4625 22.1467 76.6305 22.584 75.6065 22.904C74.5825 23.2027 73.5692 23.352 72.5665 23.352ZM80.1998 23V0.439999H85.0318V9.432C85.5864 8.62133 86.3011 8.01333 87.1758 7.608C88.0504 7.18133 89.0211 6.968 90.0878 6.968C93.7784 6.968 95.6238 9.16533 95.6238 13.56V23H90.7918V13.784C90.7918 12.696 90.5891 11.9173 90.1838 11.448C89.7784 10.9573 89.1811 10.712 88.3918 10.712C87.3678 10.712 86.5464 11.032 85.9278 11.672C85.3304 12.312 85.0318 13.1653 85.0318 14.232V23H80.1998Z" fill="white"/>
</svg>
